# xmcd
#
# Track frame offsets:
#	150
#	17929
#	35781
#	54479
#	70461
#	85219
#	101676
#	122272
#	136849
#	148913
#
# Disc length: 2436 seconds
# Revision: 0
# Processed by: cddbd v1.5.2PL0 Copyright (c) Steve Scherf et al.
# Submitted via: dBpowerAMP V12.0
#
DISCID=8f09820a
DTITLE=Devon Sproule - I Love You, Go Easy
DYEAR=2011
DGENRE=Rock
TTITLE0=If I Can Do This
TTITLE1=I Love You, Go Easy
TTITLE2=The Unmarked Animals
TTITLE3=Monk/Monkey
TTITLE4=Runs In The Family
TTITLE5=The Warning Bell
TTITLE6=The Evening Ghost Crab
TTITLE7=The Faulty Body
TTITLE8=Body's In Trouble
TTITLE9=Now's The Time
EXTD=
EXTT0=
EXTT1=
EXTT2=
EXTT3=
EXTT4=
EXTT5=
EXTT6=
EXTT7=
EXTT8=
EXTT9=
PLAYORDER=
